<svg xmlns="http://www.w3.org/2000/svg" xmlns:xlink="http://www.w3.org/1999/xlink" fill="none" version="1.1" width="200" height="200.00001525878906" viewBox="0 0 200 200.00001525878906"><g style="mix-blend-mode:passthrough"><g style="mix-blend-mode:passthrough"><rect x="0" y="0" width="200" height="200" rx="8" fill="#FFFFFF" fill-opacity="1"/><path d="M0,8L0,192Q0,192.196,0.00963635,192.393Q0.0192727,192.589,0.0385222,192.784Q0.0577717,192.98,0.0865879,193.174Q0.115404,193.368,0.153718,193.561Q0.192031,193.753,0.23975,193.944Q0.287469,194.134,0.344477,194.322Q0.401486,194.51,0.467647,194.695Q0.533809,194.88,0.608964,195.061Q0.684118,195.243,0.768086,195.42Q0.852053,195.598,0.94463,195.771Q1.03721,195.944,1.13817,196.113Q1.23914,196.281,1.34824,196.445Q1.45735,196.608,1.57434,196.766Q1.69133,196.923,1.81592,197.075Q1.9405,197.227,2.07239,197.372Q2.20428,197.518,2.34315,197.657Q2.48201,197.796,2.62753,197.928Q2.77304,198.059,2.92485,198.184Q3.07666,198.309,3.23441,198.426Q3.39215,198.543,3.55544,198.652Q3.71873,198.761,3.88718,198.862Q4.05563,198.963,4.22883,199.055Q4.40203,199.148,4.57956,199.232Q4.75709,199.316,4.93853,199.391Q5.11997,199.466,5.30488,199.532Q5.48979,199.598,5.67772,199.656Q5.86565,199.712,6.05616,199.76Q6.24666,199.808,6.43928,199.846Q6.63189,199.885,6.82616,199.913Q7.02042,199.942,7.21586,199.961Q7.41131,199.981,7.60746,199.99Q7.80361,200,8,200L192,200Q192.196,200,192.393,199.99Q192.589,199.981,192.784,199.961Q192.98,199.942,193.174,199.913Q193.368,199.885,193.561,199.846Q193.753,199.808,193.944,199.76Q194.134,199.712,194.322,199.656Q194.51,199.598,194.695,199.532Q194.88,199.466,195.061,199.391Q195.243,199.316,195.42,199.232Q195.598,199.148,195.771,199.055Q195.944,198.963,196.113,198.862Q196.281,198.761,196.445,198.652Q196.608,198.543,196.766,198.426Q196.923,198.309,197.075,198.184Q197.227,198.059,197.372,197.928Q197.518,197.796,197.657,197.657Q197.796,197.518,197.928,197.372Q198.059,197.227,198.184,197.075Q198.309,196.923,198.426,196.766Q198.543,196.608,198.652,196.445Q198.761,196.281,198.862,196.113Q198.963,195.944,199.055,195.771Q199.148,195.598,199.232,195.42Q199.316,195.243,199.391,195.061Q199.466,194.88,199.532,194.695Q199.598,194.51,199.656,194.322Q199.712,194.134,199.76,193.944Q199.808,193.753,199.846,193.561Q199.885,193.368,199.913,193.174Q199.942,192.98,199.961,192.784Q199.981,192.589,199.99,192.393Q200,192.196,200,192L200,8Q200,7.80361,199.99,7.60746Q199.981,7.41131,199.961,7.21586Q199.942,7.02042,199.913,6.82616Q199.885,6.63189,199.846,6.43928Q199.808,6.24666,199.76,6.05616Q199.712,5.86565,199.656,5.67772Q199.598,5.48979,199.532,5.30488Q199.466,5.11997,199.391,4.93853Q199.316,4.75709,199.232,4.57956Q199.148,4.40203,199.055,4.22883Q198.963,4.05563,198.862,3.88718Q198.761,3.71873,198.652,3.55544Q198.543,3.39215,198.426,3.23441Q198.309,3.07666,198.184,2.92485Q198.059,2.77304,197.928,2.62753Q197.796,2.48201,197.657,2.34315Q197.518,2.20428,197.372,2.07239Q197.227,1.9405,197.075,1.81592Q196.923,1.69133,196.766,1.57434Q196.608,1.45735,196.445,1.34824Q196.281,1.23914,196.113,1.13817Q195.944,1.03721,195.771,0.94463Q195.598,0.852053,195.42,0.768086Q195.243,0.684118,195.061,0.608964Q194.88,0.533809,194.695,0.467647Q194.51,0.401486,194.322,0.344477Q194.134,0.287469,193.944,0.23975Q193.753,0.192031,193.561,0.153718Q193.368,0.115404,193.174,0.0865879Q192.98,0.0577717,192.784,0.0385222Q192.589,0.0192727,192.393,0.00963635Q192.196,0,192,0L8,0Q7.80361,0,7.60746,0.00963635Q7.41131,0.0192727,7.21586,0.0385222Q7.02042,0.0577717,6.82616,0.0865879Q6.63189,0.115404,6.43928,0.153718Q6.24666,0.192031,6.05616,0.23975Q5.86565,0.287469,5.67772,0.344477Q5.48979,0.401486,5.30488,0.467647Q5.11997,0.533809,4.93853,0.608964Q4.75709,0.684118,4.57956,0.768086Q4.40203,0.852053,4.22883,0.94463Q4.05563,1.03721,3.88718,1.13817Q3.71873,1.23914,3.55544,1.34824Q3.39215,1.45735,3.23441,1.57434Q3.07666,1.69133,2.92485,1.81592Q2.77304,1.9405,2.62753,2.07239Q2.48201,2.20428,2.34315,2.34315Q2.20428,2.48201,2.07239,2.62753Q1.9405,2.77304,1.81592,2.92485Q1.69133,3.07666,1.57434,3.23441Q1.45735,3.39215,1.34824,3.55544Q1.23914,3.71873,1.13817,3.88718Q1.03721,4.05563,0.94463,4.22883Q0.852053,4.40203,0.768086,4.57956Q0.684118,4.75709,0.608964,4.93853Q0.533809,5.11997,0.467647,5.30488Q0.401486,5.48979,0.344477,5.67772Q0.287469,5.86565,0.23975,6.05616Q0.192031,6.24666,0.153718,6.43928Q0.115404,6.63189,0.0865879,6.82616Q0.0577717,7.02042,0.0385222,7.21586Q0.0192727,7.41131,0.00963635,7.60746Q0,7.80361,0,8ZM192,192L8,192L8,8L192,8L192,192Z" fill-rule="evenodd" fill="#3D3D3D" fill-opacity="1"/></g><g style="mix-blend-mode:passthrough"><path d="M43.2969,39.2656L43.2969,72.875L98.3125,72.875L98.3125,39.2656L43.2969,39.2656ZM85.4375,61.5312L56.1719,61.5312L56.1719,50.6094L85.4375,50.6094L85.4375,61.5312ZM101.25,80.9844L40.7656,80.9844L40.7656,137.266L53.5156,137.266L53.5156,92.75L88.7969,92.75L88.7969,136.703L101.25,136.703L101.25,80.9844ZM81.375,137.969L74.9375,147.484C81.5156,150.984,87.9531,155.75,94.25,161.906L97.75,156.594L107.5469,165.266C123.9375,145.672,132.60899999999998,115.141,133.453,73.5625L147.453,73.5625C147.172,112.062,146.75,134.75,145.906,141.609C144.938,147.766,141.85899999999998,150.844,136.531,150.844C133.312,150.844,129.5312,150.562,125.1875,150.141L128.2656,162.609C133.172,163.031,136.672,163.312,138.625,163.312C150.39100000000002,163.312,156.969,158.125,158.375,147.906C159.766,136.703,160.469,107.734,160.469,60.6875L133.453,60.6875L133.453,35.625L120.0156,35.625L120.0156,60.6875L106.0156,60.6875L106.0156,73.5625L120.0156,73.5625C119.4531,107.453,113.1562,133.062,101.25,150.703C95.2344,145.812,88.6562,141.609,81.375,137.969ZM64.9844,98.9062L64.9844,118.094C64.5781,127.047,62.3281,134.469,58.2656,140.344C54.0781,145.812,46.0938,150.281,34.32812,153.781L41.6094,164.984C54.0781,161.062,63.0312,155.609,68.4844,148.609C74.0938,140.906,77.3125,130.688,77.875,118.094L77.875,98.9062L64.9844,98.9062Z" fill="#3D3D3D" fill-opacity="1"/></g></g></svg>